<svg height="511pt" viewBox="-21 1 511 511.999" width="511pt" xmlns="http://www.w3.org/2000/svg"><path d="m418.636719 389.4375c15.941406-29.839844 24.367187-63.601562 24.367187-97.636719 0-34.03125-8.425781-67.792969-24.363281-97.636719-29.945313-56.085937-83.148437-94.597656-144.109375-106.234374v-27.78125c0-9.183594-6.90625-16.769532-15.796875-17.875v-34.773438c0-4.140625-3.355469-7.5-7.5-7.5h-31.585937c-4.144532 0-7.5 3.359375-7.5 7.5v34.773438c-8.890626 1.105468-15.796876 8.691406-15.796876 17.875v27.734374c-31.753906 6.007813-61.542968 19.378907-87.644531 39.53125-3.28125 2.53125-3.886719 7.242188-1.355469 10.519532 2.53125 3.28125 7.242188 3.886718 10.519532 1.351562 13.171875-10.167968 27.355468-18.46875 42.296875-24.828125-20.902344 18.292969-38.539063 44.257813-50.882813 76.128907h-37.675781c6.25-10.097657 13.4375-19.628907 21.457031-28.433594 2.789063-3.058594 2.570313-7.804688-.492187-10.59375-3.0625-2.789063-7.808594-2.570313-10.597657.496094-11.625 12.757812-21.628906 26.925781-29.734374 42.109374-15.9375 29.839844-24.363282 63.601563-24.363282 97.636719 0 34.03125 8.421875 67.792969 24.363282 97.636719 36.203124 67.804688 106.398437 109.925781 183.199218 109.925781 46.328125 0 90.152344-14.929687 126.734375-43.175781 3.28125-2.535156 3.882813-7.242188 1.355469-10.523438-2.53125-3.277343-7.242188-3.882812-10.523438-1.351562-13.167968 10.167969-27.355468 18.46875-42.292968 24.828125 20.902344-18.292969 38.535156-44.253906 50.878906-76.125h37.679688c-6.25 10.097656-13.4375 19.625-21.457032 28.429687-2.789062 3.0625-2.570312 7.808594.492188 10.597657 1.4375 1.308593 3.246094 1.953125 5.050781 1.953125 2.035156 0 4.066406-.824219 5.546875-2.445313 11.621094-12.761719 21.628906-26.933593 29.730469-42.113281zm-123.363281-11.421875c3.347656-24.542969 5.242187-51.441406 5.535156-78.714844h63.90625c-.722656 27.367188-5.386719 54.332031-13.632813 78.714844zm-59.832032 106.347656c-13.089844 0-31.53125-28.675781-42.34375-91.347656h84.6875c-10.8125 62.667969-29.253906 91.347656-42.34375 91.347656zm-172.207031-106.347656c-12.210937-24.363281-19.121094-51.339844-20.191406-78.714844h48.117187c.683594 27.210938 5.082032 54.089844 12.863282 78.714844zm0-172.429687h40.789063c-7.78125 24.625-12.179688 51.503906-12.863282 78.714843h-48.117187c1.070312-27.375 7.980469-54.351562 20.191406-78.714843zm112.375 0c-3.347656 24.542968-5.242187 51.441406-5.535156 78.714843h-63.90625c.722656-27.367187 5.382812-54.332031 13.628906-78.714843zm59.832031-106.347657c13.089844 0 31.527344 28.675781 42.34375 91.347657h-84.6875c10.8125-62.667969 29.253906-91.347657 42.34375-91.347657zm172.207032 106.347657c12.210937 24.363281 19.117187 51.339843 20.191406 78.714843h-48.117188c-.6875-27.210937-5.082031-54.089843-12.863281-78.714843zm-42.933594 78.714843h-63.90625c-.292969-27.273437-2.1875-54.171875-5.535156-78.714843h55.8125c8.246093 24.382812 12.90625 51.347656 13.628906 78.714843zm-71.710938-93.714843c-4.054687-24.082032-12.570312-62.761719-28-86.242188 33.082032 11.585938 62.125 42.324219 80.429688 86.242188zm-12.871094 15c3.433594 24.421874 5.375 51.359374 5.675782 78.714843h-100.734375c.300781-27.355469 2.242187-54.292969 5.671875-78.714843zm-173.96875 93.714843h63.90625c.296876 27.273438 2.1875 54.171875 5.535157 78.714844h-55.808594c-8.246094-24.382813-12.90625-51.347656-13.632813-78.714844zm71.714844 93.714844c4.050782 24.082031 12.566406 62.761719 27.996094 86.242187-33.078125-11.585937-62.125-42.324218-80.425781-86.242187zm12.867188-15c-3.429688-24.417969-5.371094-51.359375-5.671875-78.714844h100.734375c-.300782 27.355469-2.242188 54.292969-5.675782 78.714844zm188.976562-78.714844h48.117188c-1.070313 27.375-7.980469 54.351563-20.191406 78.714844h-40.789063c7.78125-24.625 12.179687-51.503906 12.863281-78.714844zm19.558594-108.714843h-37.6875c-12.316406-31.808594-29.90625-57.730469-50.753906-76.015626 36.144531 15.363282 67.203125 41.652344 88.441406 76.015626zm-172.132812-175.585938h16.585937v27.117188h-16.585937zm-15.796876 45.148438c0-1.671876 1.359376-3.03125 3.03125-3.03125h42.117188c1.667969 0 3.03125 1.359374 3.03125 3.03125v25.484374c-7.9375-.917968-15.976562-1.394531-24.089844-1.394531-8.117187 0-16.152344.464844-24.089844 1.375zm-5.476562 44.195312c-15.429688 23.480469-23.945312 62.160156-27.996094 86.242188h-52.429687c18.304687-43.917969 47.347656-74.65625 80.425781-86.242188zm-134.273438 288.671875h37.683594c12.320313 31.808594 29.910156 57.730469 50.753906 76.015625-36.140624-15.363281-67.203124-41.652344-88.4375-76.015625zm193.402344 86.242187c15.429688-23.480468 23.945313-62.160156 28-86.242187h52.425782c-18.300782 43.917969-47.34375 74.65625-80.425782 86.242187zm0 0"/><path d="m465.574219 456.433594-15.011719-5.773438c-2.582031-.992187-4.609375-3.050781-5.566406-5.644531l-9.296875-25.238281c-1.085938-2.949219-3.898438-4.910156-7.039063-4.910156-3.144531 0-5.953125 1.960937-7.039062 4.910156l-9.296875 25.234375c-.957031 2.597656-2.988281 4.65625-5.570313 5.648437l-15.007812 5.773438c-2.898438 1.113281-4.808594 3.894531-4.808594 7 0 3.101562 1.910156 5.886718 4.808594 7l15.007812 5.773437c2.582032.992188 4.613282 3.050781 5.570313 5.648438l9.296875 25.238281c1.085937 2.945312 3.894531 4.90625 7.039062 4.90625 3.140625 0 5.949219-1.960938 7.039063-4.90625l9.296875-25.238281c.957031-2.597657 2.984375-4.65625 5.566406-5.648438l15.011719-5.773437c2.894531-1.113282 4.808593-3.898438 4.808593-7 0-3.101563-1.914062-5.886719-4.808593-7zm-34.652344 20.234375-2.261719 6.136719-2.261718-6.136719c-2.105469-5.714844-6.242188-10.414063-11.5625-13.234375 5.320312-2.820313 9.457031-7.519532 11.5625-13.234375l2.261718-6.136719 2.261719 6.136719c2.105469 5.714843 6.242187 10.414062 11.5625 13.234375-5.320313 2.824218-9.457031 7.519531-11.5625 13.234375zm0 0"/><path d="m25.886719 131.21875 9.296875 25.234375c1.085937 2.949219 3.894531 4.910156 7.039062 4.910156 3.140625 0 5.949219-1.960937 7.035156-4.910156l9.300782-25.234375c.957031-2.597656 2.984375-4.65625 5.566406-5.648438l15.011719-5.773437c2.894531-1.113281 4.808593-3.898437 4.808593-7 0-3.105469-1.914062-5.886719-4.808593-7l-15.011719-5.773437c-2.582031-.992188-4.609375-3.050782-5.566406-5.644532l-9.300782-25.238281c-1.085937-2.949219-3.894531-4.910156-7.035156-4.910156-3.144531 0-5.953125 1.960937-7.039062 4.910156l-9.296875 25.238281c-.957031 2.59375-2.984375 4.652344-5.570313 5.644532l-15.007812 5.773437c-2.898438 1.113281-4.808594 3.894531-4.808594 7 0 3.101563 1.910156 5.886719 4.808594 7l15.011718 5.773437c2.578126.992188 4.609376 3.050782 5.566407 5.648438zm14.074219-31.65625 2.261718-6.136719 2.257813 6.136719c2.105469 5.714844 6.242187 10.414062 11.566406 13.234375-5.324219 2.820313-9.460937 7.519531-11.566406 13.234375l-2.257813 6.136719-2.261718-6.136719c-2.105469-5.714844-6.242188-10.414062-11.5625-13.234375 5.320312-2.820313 9.457031-7.519531 11.5625-13.234375zm0 0"/><path d="m429.1875 120.296875c4.140625 0 7.5-3.359375 7.5-7.5v-6.316406c0-4.144531-3.359375-7.5-7.5-7.5-4.144531 0-7.5 3.355469-7.5 7.5v6.316406c0 4.140625 3.355469 7.5 7.5 7.5zm0 0"/><path d="m434.320312 125.433594c0 4.140625 3.359376 7.5 7.5 7.5h6.320313c4.140625 0 7.5-3.359375 7.5-7.5 0-4.144532-3.359375-7.5-7.5-7.5h-6.320313c-4.140624 0-7.5 3.355468-7.5 7.5zm0 0"/><path d="m429.1875 130.566406c-4.144531 0-7.5 3.359375-7.5 7.5v6.320313c0 4.140625 3.355469 7.5 7.5 7.5 4.140625 0 7.5-3.359375 7.5-7.5v-6.320313c0-4.140625-3.359375-7.5-7.5-7.5zm0 0"/><path d="m410.234375 132.933594h6.316406c4.140625 0 7.5-3.359375 7.5-7.5 0-4.144532-3.359375-7.5-7.5-7.5h-6.316406c-4.144531 0-7.5 3.355468-7.5 7.5 0 4.140625 3.355469 7.5 7.5 7.5zm0 0"/><path d="m41.695312 448.820312c4.140626 0 7.5-3.355468 7.5-7.5v-6.316406c0-4.140625-3.359374-7.5-7.5-7.5-4.144531 0-7.5 3.359375-7.5 7.5v6.316406c0 4.144532 3.355469 7.5 7.5 7.5zm0 0"/><path d="m60.648438 446.457031h-6.316407c-4.144531 0-7.5 3.359375-7.5 7.5 0 4.144531 3.355469 7.5 7.5 7.5h6.316407c4.140624 0 7.5-3.355469 7.5-7.5 0-4.140625-3.359376-7.5-7.5-7.5zm0 0"/><path d="m41.695312 459.09375c-4.144531 0-7.5 3.355469-7.5 7.5v6.316406c0 4.144532 3.355469 7.5 7.5 7.5 4.140626 0 7.5-3.355468 7.5-7.5v-6.316406c0-4.144531-3.359374-7.5-7.5-7.5zm0 0"/><path d="m36.558594 453.957031c0-4.140625-3.355469-7.5-7.5-7.5h-6.316406c-4.144532 0-7.5 3.359375-7.5 7.5 0 4.144531 3.355468 7.5 7.5 7.5h6.316406c4.144531 0 7.5-3.355469 7.5-7.5zm0 0"/></svg>